<?xml version="1.0" encoding="UTF-8"?>
<svg xmlns="http://www.w3.org/2000/svg" width="3210" height="1090"
     viewBox="0 0 3210 1090" role="img"
     aria-label="SIYAM Proposed System BPMN swim-lane diagram">
  <defs>
    <marker id="arrow" viewBox="0 0 10 10" refX="9" refY="5"
            markerWidth="8" markerHeight="8" orient="auto-start-reverse">
      <path d="M 0 0 L 10 5 L 0 10 z" fill="#1f2a24"/>
    </marker>
    <marker id="arrow-msg" viewBox="0 0 10 10" refX="9" refY="5"
            markerWidth="7" markerHeight="7" orient="auto-start-reverse">
      <path d="M 0 0 L 10 5 L 0 10 z" fill="#6b7280"/>
    </marker>
  </defs>
  <rect width="100%" height="100%" fill="#ffffff"/>
<text x="1605.0" y="40" fill="#1f2a24" font-size="26" font-weight="800" text-anchor="middle" font-family="Segoe UI, Helvetica, Arial, sans-serif">SIYAM — Proposed System Diagram (BPMN Swim-Lane)</text>
<text x="1605.0" y="68" fill="#5c6b63" font-size="14" font-weight="500" text-anchor="middle" font-family="Segoe UI, Helvetica, Arial, sans-serif">Business Process Model and Notation · sanctuary operating loop (aligned to current main)</text>
<rect x="150" y="110" width="3020" height="840" rx="0" ry="0" fill="#f4f7f5" stroke="#1f2a24" stroke-width="2.2"/>
<rect x="150" y="110" width="46" height="840" rx="0" ry="0" fill="#dfe8e2" stroke="#1f2a24" stroke-width="2.2"/>
<text x="180" y="530.0" fill="#1f2a24" font-size="15" font-weight="800" text-anchor="middle" transform="rotate(-90 180 530.0)" font-family="Segoe UI, Helvetica, Arial, sans-serif">SIYAM Pool</text>
<rect x="196" y="110" width="2974" height="210" rx="0" ry="0" fill="#e8f2ec" stroke="#7a8a82" stroke-width="1"/>
<rect x="196" y="110" width="120" height="210" rx="0" ry="0" fill="#ffffff" stroke="#2f6b4f" stroke-width="1.5"/>
<text x="256" y="215.0" fill="#2f6b4f" font-size="14" font-weight="800" text-anchor="middle" font-family="Segoe UI, Helvetica, Arial, sans-serif">Donor</text>
<rect x="196" y="320" width="2974" height="210" rx="0" ry="0" fill="#e7eef8" stroke="#7a8a82" stroke-width="1"/>
<rect x="196" y="320" width="120" height="210" rx="0" ry="0" fill="#ffffff" stroke="#2f5f8a" stroke-width="1.5"/>
<text x="256" y="425.0" fill="#2f5f8a" font-size="14" font-weight="800" text-anchor="middle" font-family="Segoe UI, Helvetica, Arial, sans-serif">Manager</text>
<line x1="196" y1="320" x2="3170" y2="320" stroke="#7a8a82" stroke-width="1"/>
<rect x="196" y="530" width="2974" height="210" rx="0" ry="0" fill="#f8efe6" stroke="#7a8a82" stroke-width="1"/>
<rect x="196" y="530" width="120" height="210" rx="0" ry="0" fill="#ffffff" stroke="#9a5b24" stroke-width="1.5"/>
<text x="256" y="635.0" fill="#9a5b24" font-size="14" font-weight="800" text-anchor="middle" font-family="Segoe UI, Helvetica, Arial, sans-serif">Staff</text>
<line x1="196" y1="530" x2="3170" y2="530" stroke="#7a8a82" stroke-width="1"/>
<rect x="196" y="740" width="2974" height="210" rx="0" ry="0" fill="#eef1f3" stroke="#7a8a82" stroke-width="1"/>
<rect x="196" y="740" width="120" height="210" rx="0" ry="0" fill="#ffffff" stroke="#4a5560" stroke-width="1.5"/>
<text x="256" y="838.0" fill="#4a5560" font-size="14" font-weight="800" text-anchor="middle" font-family="Segoe UI, Helvetica, Arial, sans-serif">SIYAM</text>
<text x="256" y="852.0" fill="#4a5560" font-size="14" font-weight="800" text-anchor="middle" font-family="Segoe UI, Helvetica, Arial, sans-serif">System</text>
<line x1="196" y1="740" x2="3170" y2="740" stroke="#7a8a82" stroke-width="1"/>
<rect x="386" y="82" width="360" height="24" rx="6" ry="6" fill="#ffffff" stroke="#7a8a82" stroke-width="1"/>
<text x="566.0" y="99" fill="#5c6b63" font-size="12" font-weight="700" text-anchor="middle" font-family="Segoe UI, Helvetica, Arial, sans-serif">1. Access</text>
<rect x="766" y="82" width="780" height="24" rx="6" ry="6" fill="#ffffff" stroke="#7a8a82" stroke-width="1"/>
<text x="1156.0" y="99" fill="#5c6b63" font-size="12" font-weight="700" text-anchor="middle" font-family="Segoe UI, Helvetica, Arial, sans-serif">2. Donation Intake</text>
<rect x="1566" y="82" width="420" height="24" rx="6" ry="6" fill="#ffffff" stroke="#7a8a82" stroke-width="1"/>
<text x="1776.0" y="99" fill="#5c6b63" font-size="12" font-weight="700" text-anchor="middle" font-family="Segoe UI, Helvetica, Arial, sans-serif">3. Inventory Receipt</text>
<rect x="2006" y="82" width="360" height="24" rx="6" ry="6" fill="#ffffff" stroke="#7a8a82" stroke-width="1"/>
<text x="2186.0" y="99" fill="#5c6b63" font-size="12" font-weight="700" text-anchor="middle" font-family="Segoe UI, Helvetica, Arial, sans-serif">4. Clinical / Usage</text>
<rect x="2386" y="82" width="320" height="24" rx="6" ry="6" fill="#ffffff" stroke="#7a8a82" stroke-width="1"/>
<text x="2546.0" y="99" fill="#5c6b63" font-size="12" font-weight="700" text-anchor="middle" font-family="Segoe UI, Helvetica, Arial, sans-serif">5. Replenish</text>
<rect x="2726" y="82" width="320" height="24" rx="6" ry="6" fill="#ffffff" stroke="#7a8a82" stroke-width="1"/>
<text x="2886.0" y="99" fill="#5c6b63" font-size="12" font-weight="700" text-anchor="middle" font-family="Segoe UI, Helvetica, Arial, sans-serif">6. Oversight</text>
<circle cx="230" cy="165.0" r="16" fill="#d9f0e3" stroke="#2f6b4f" stroke-width="2.2"/>
<text x="230" y="197.0" fill="#5c6b63" font-size="11" font-weight="600" text-anchor="middle" font-family="Segoe UI, Helvetica, Arial, sans-serif">Start</text>
<rect x="270" y="130.0" width="130" height="52" rx="10" ry="10" fill="#ffffff" stroke="#2f6b4f" stroke-width="1.7"/>
<text x="335.0" y="150.0" fill="#1f2a24" font-size="12" font-weight="600" text-anchor="middle" font-family="Segoe UI, Helvetica, Arial, sans-serif">Register / sign</text>
<text x="335.0" y="164.0" fill="#1f2a24" font-size="12" font-weight="600" text-anchor="middle" font-family="Segoe UI, Helvetica, Arial, sans-serif">in</text>
<rect x="270" y="225.0" width="130" height="52" rx="10" ry="10" fill="#ffffff" stroke="#2f6b4f" stroke-width="1.7"/>
<text x="335.0" y="245.0" fill="#1f2a24" font-size="12" font-weight="600" text-anchor="middle" font-family="Segoe UI, Helvetica, Arial, sans-serif">Forgot Password?</text>
<text x="335.0" y="259.0" fill="#1f2a24" font-size="12" font-weight="600" text-anchor="middle" font-family="Segoe UI, Helvetica, Arial, sans-serif">reset via email</text>
<rect x="270" y="355.0" width="130" height="52" rx="10" ry="10" fill="#ffffff" stroke="#2f5f8a" stroke-width="1.7"/>
<text x="335.0" y="375.0" fill="#1f2a24" font-size="12" font-weight="600" text-anchor="middle" font-family="Segoe UI, Helvetica, Arial, sans-serif">Sign in as</text>
<text x="335.0" y="389.0" fill="#1f2a24" font-size="12" font-weight="600" text-anchor="middle" font-family="Segoe UI, Helvetica, Arial, sans-serif">Manager</text>
<rect x="420" y="435.0" width="150" height="52" rx="10" ry="10" fill="#ffffff" stroke="#2f5f8a" stroke-width="1.7"/>
<text x="495.0" y="455.0" fill="#1f2a24" font-size="12" font-weight="600" text-anchor="middle" font-family="Segoe UI, Helvetica, Arial, sans-serif">Create / enable</text>
<text x="495.0" y="469.0" fill="#1f2a24" font-size="12" font-weight="600" text-anchor="middle" font-family="Segoe UI, Helvetica, Arial, sans-serif">/ disable Staff</text>
<rect x="270" y="609.0" width="130" height="52" rx="10" ry="10" fill="#ffffff" stroke="#9a5b24" stroke-width="1.7"/>
<text x="335.0" y="636.0" fill="#1f2a24" font-size="12" font-weight="600" text-anchor="middle" font-family="Segoe UI, Helvetica, Arial, sans-serif">Sign in as Staff</text>
<rect x="440" y="819.0" width="160" height="52" rx="10" ry="10" fill="#ffffff" stroke="#4a5560" stroke-width="1.7"/>
<text x="520.0" y="832.0" fill="#1f2a24" font-size="12" font-weight="600" text-anchor="middle" font-family="Segoe UI, Helvetica, Arial, sans-serif">Authenticate &amp;</text>
<text x="520.0" y="846.0" fill="#1f2a24" font-size="12" font-weight="600" text-anchor="middle" font-family="Segoe UI, Helvetica, Arial, sans-serif">gate routes by</text>
<text x="520.0" y="860.0" fill="#1f2a24" font-size="12" font-weight="600" text-anchor="middle" font-family="Segoe UI, Helvetica, Arial, sans-serif">role</text>
<line x1="246" y1="165.0" x2="270" y2="165.0" stroke="#1f2a24" stroke-width="1.6" marker-end="url(#arrow)"/>
<path d="M 335.0 182.0 L 335.0 251.0" fill="none" stroke="#2f6b4f" stroke-width="1.3" marker-end="url(#arrow)"/>
<path d="M 400 381.0 L 420.0 381.0 L 420.0 461.0 L 420.0" fill="none" stroke="#2f5f8a" stroke-width="1.3" marker-end="url(#arrow)"/>
<path d="M 400 156.0 C 400 156.0, 400 825.0, 440 835.0" fill="none" stroke="#6b7280" stroke-width="1.6" stroke-dasharray="6 5" marker-end="url(#arrow-msg)"/>
<path d="M 400 251.0 C 410 251.0, 410 855.0, 440 853.0" fill="none" stroke="#6b7280" stroke-width="1.3" stroke-dasharray="6 5" marker-end="url(#arrow-msg)"/>
<path d="M 400 381.0 C 390 381.0, 390 840.0, 440 845.0" fill="none" stroke="#6b7280" stroke-width="1.3" stroke-dasharray="6 5" marker-end="url(#arrow-msg)"/>
<path d="M 495.0 487.0 L 495.0 819.0" fill="none" stroke="#6b7280" stroke-width="1.3" stroke-dasharray="6 5" marker-end="url(#arrow-msg)"/>
<path d="M 400 635.0 C 400 635.0, 400 863.0, 440 861.0" fill="none" stroke="#6b7280" stroke-width="1.3" stroke-dasharray="6 5" marker-end="url(#arrow-msg)"/>
<rect x="660" y="130.0" width="145" height="52" rx="10" ry="10" fill="#ffffff" stroke="#2f6b4f" stroke-width="1.7"/>
<text x="732.5" y="150.0" fill="#1f2a24" font-size="12" font-weight="600" text-anchor="middle" font-family="Segoe UI, Helvetica, Arial, sans-serif">View Currently</text>
<text x="732.5" y="164.0" fill="#1f2a24" font-size="12" font-weight="600" text-anchor="middle" font-family="Segoe UI, Helvetica, Arial, sans-serif">Needed</text>
<rect x="840" y="130.0" width="150" height="52" rx="10" ry="10" fill="#ffffff" stroke="#2f6b4f" stroke-width="1.7"/>
<text x="915.0" y="143.0" fill="#1f2a24" font-size="12" font-weight="600" text-anchor="middle" font-family="Segoe UI, Helvetica, Arial, sans-serif">Submit donation</text>
<text x="915.0" y="157.0" fill="#1f2a24" font-size="12" font-weight="600" text-anchor="middle" font-family="Segoe UI, Helvetica, Arial, sans-serif">+ drop-off +</text>
<text x="915.0" y="171.0" fill="#1f2a24" font-size="12" font-weight="600" text-anchor="middle" font-family="Segoe UI, Helvetica, Arial, sans-serif">proof</text>
<path d="M 400 165.0 L 660.5 165.0" fill="none" stroke="#2f6b4f" stroke-width="1.6" marker-end="url(#arrow)"/>
<line x1="805" y1="165.0" x2="840" y2="165.0" stroke="#2f6b4f" stroke-width="1.6" marker-end="url(#arrow)"/>
<rect x="840" y="819.0" width="150" height="52" rx="10" ry="10" fill="#ffffff" stroke="#4a5560" stroke-width="1.7"/>
<text x="915.0" y="832.0" fill="#1f2a24" font-size="12" font-weight="600" text-anchor="middle" font-family="Segoe UI, Helvetica, Arial, sans-serif">Create</text>
<text x="915.0" y="846.0" fill="#1f2a24" font-size="12" font-weight="600" text-anchor="middle" font-family="Segoe UI, Helvetica, Arial, sans-serif">submission</text>
<text x="915.0" y="860.0" fill="#1f2a24" font-size="12" font-weight="600" text-anchor="middle" font-family="Segoe UI, Helvetica, Arial, sans-serif">(pending)</text>
<path d="M 915.0 182.0 L 915.0 845.0" fill="none" stroke="#6b7280" stroke-width="1.6" stroke-dasharray="6 5" marker-end="url(#arrow-msg)"/>
<rect x="1030" y="355.0" width="140" height="52" rx="10" ry="10" fill="#ffffff" stroke="#2f5f8a" stroke-width="1.7"/>
<text x="1100.0" y="375.0" fill="#1f2a24" font-size="12" font-weight="600" text-anchor="middle" font-family="Segoe UI, Helvetica, Arial, sans-serif">Review pending</text>
<text x="1100.0" y="389.0" fill="#1f2a24" font-size="12" font-weight="600" text-anchor="middle" font-family="Segoe UI, Helvetica, Arial, sans-serif">submission</text>
<path d="M 990 845.0 C 1000 845.0, 1000 385.0, 1030 385.0" fill="none" stroke="#6b7280" stroke-width="1.6" stroke-dasharray="6 5" marker-end="url(#arrow-msg)"/>
<polygon points="1230,363.0 1252,385.0 1230,407.0 1208,385.0" fill="#fff8e8" stroke="#2f5f8a" stroke-width="1.8"/>
<text x="1230" y="389.0" fill="#2f5f8a" font-size="12" font-weight="800" text-anchor="middle" font-family="Segoe UI, Helvetica, Arial, sans-serif">X</text>
<text x="1230" y="355.0" fill="#5c6b63" font-size="11" font-weight="600" text-anchor="middle" font-family="Segoe UI, Helvetica, Arial, sans-serif">Decision</text>
<line x1="1170" y1="385.0" x2="1208" y2="385.0" stroke="#2f5f8a" stroke-width="1.6" marker-end="url(#arrow)"/>
<rect x="1290" y="330.0" width="125" height="48" rx="10" ry="10" fill="#ffffff" stroke="#2f5f8a" stroke-width="1.7"/>
<text x="1352.5" y="348.0" fill="#1f2a24" font-size="12" font-weight="600" text-anchor="middle" font-family="Segoe UI, Helvetica, Arial, sans-serif">Approve</text>
<text x="1352.5" y="362.0" fill="#1f2a24" font-size="12" font-weight="600" text-anchor="middle" font-family="Segoe UI, Helvetica, Arial, sans-serif">submission</text>
<rect x="1290" y="430.0" width="125" height="48" rx="10" ry="10" fill="#ffffff" stroke="#2f5f8a" stroke-width="1.7"/>
<text x="1352.5" y="448.0" fill="#1f2a24" font-size="12" font-weight="600" text-anchor="middle" font-family="Segoe UI, Helvetica, Arial, sans-serif">Decline</text>
<text x="1352.5" y="462.0" fill="#1f2a24" font-size="12" font-weight="600" text-anchor="middle" font-family="Segoe UI, Helvetica, Arial, sans-serif">submission</text>
<path d="M 1250 375.0 L 1250 378.0 L 1290 378.0" fill="none" stroke="#2f5f8a" stroke-width="1.6" marker-end="url(#arrow)"/>
<text x="1268" y="347.0" fill="#2f5f8a" font-size="11" font-weight="700" text-anchor="middle" font-family="Segoe UI, Helvetica, Arial, sans-serif">yes</text>
<path d="M 1250 395.0 L 1250 478.0 L 1290 478.0" fill="none" stroke="#2f5f8a" stroke-width="1.6" marker-end="url(#arrow)"/>
<text x="1268" y="465.0" fill="#2f5f8a" font-size="11" font-weight="700" text-anchor="middle" font-family="Segoe UI, Helvetica, Arial, sans-serif">no</text>
<rect x="1030" y="480.0" width="150" height="48" rx="10" ry="10" fill="#ffffff" stroke="#2f5f8a" stroke-width="1.7"/>
<text x="1105.0" y="491.0" fill="#1f2a24" font-size="12" font-weight="600" text-anchor="middle" font-family="Segoe UI, Helvetica, Arial, sans-serif">Record walk-in</text>
<text x="1105.0" y="505.0" fill="#1f2a24" font-size="12" font-weight="600" text-anchor="middle" font-family="Segoe UI, Helvetica, Arial, sans-serif">donation (Add</text>
<text x="1105.0" y="519.0" fill="#1f2a24" font-size="12" font-weight="600" text-anchor="middle" font-family="Segoe UI, Helvetica, Arial, sans-serif">Donation)</text>
<path d="M 400 385.0 C 700 385.0, 900 505.0, 1030 504.0" fill="none" stroke="#2f5f8a" stroke-width="1.3" stroke-dasharray="6 5" marker-end="url(#arrow)"/>
<text x="860" y="520.0" fill="#2f5f8a" font-size="11" font-weight="600" text-anchor="middle" font-family="Segoe UI, Helvetica, Arial, sans-serif">bypass submission</text>
<rect x="1460" y="819.0" width="155" height="52" rx="10" ry="10" fill="#ffffff" stroke="#4a5560" stroke-width="1.7"/>
<text x="1537.5" y="832.0" fill="#1f2a24" font-size="12" font-weight="600" text-anchor="middle" font-family="Segoe UI, Helvetica, Arial, sans-serif">Update status</text>
<text x="1537.5" y="846.0" fill="#1f2a24" font-size="12" font-weight="600" text-anchor="middle" font-family="Segoe UI, Helvetica, Arial, sans-serif">approved /</text>
<text x="1537.5" y="860.0" fill="#1f2a24" font-size="12" font-weight="600" text-anchor="middle" font-family="Segoe UI, Helvetica, Arial, sans-serif">rejected</text>
<path d="M 1415 354.0 C 1420 354.0, 1420 837.0, 1460 840.0" fill="none" stroke="#6b7280" stroke-width="1.6" stroke-dasharray="6 5" marker-end="url(#arrow-msg)"/>
<path d="M 1415 454.0 C 1430 454.0, 1430 857.0, 1460 855.0" fill="none" stroke="#6b7280" stroke-width="1.6" stroke-dasharray="6 5" marker-end="url(#arrow-msg)"/>
<circle cx="1660" cy="270.0" r="16" fill="#f0d9d9" stroke="#2f6b4f" stroke-width="2.2"/>
<circle cx="1660" cy="270.0" r="10" fill="#f0d9d9" stroke="#2f6b4f" stroke-width="3.2"/>
<text x="1660" y="304.0" fill="#5c6b63" font-size="11" font-weight="600" text-anchor="middle" font-family="Segoe UI, Helvetica, Arial, sans-serif">Rejected end</text>
<path d="M 1537.5 819.0 C 1660 755.0, 1660 305.0, 1660 286.0" fill="none" stroke="#6b7280" stroke-width="1.6" stroke-dasharray="6 5" marker-end="url(#arrow-msg)"/>
<text x="1585" y="240.0" fill="#5c6b63" font-size="11" font-weight="600" text-anchor="middle" font-family="Segoe UI, Helvetica, Arial, sans-serif">if rejected</text>
<rect x="1460" y="130.0" width="140" height="52" rx="10" ry="10" fill="#ffffff" stroke="#2f6b4f" stroke-width="1.7"/>
<text x="1530.0" y="150.0" fill="#1f2a24" font-size="12" font-weight="600" text-anchor="middle" font-family="Segoe UI, Helvetica, Arial, sans-serif">Await approval /</text>
<text x="1530.0" y="164.0" fill="#1f2a24" font-size="12" font-weight="600" text-anchor="middle" font-family="Segoe UI, Helvetica, Arial, sans-serif">drop-off</text>
<path d="M 990 165.0 L 1460.0 165.0" fill="none" stroke="#2f6b4f" stroke-width="1.6" marker-end="url(#arrow)"/>
<rect x="1460" y="330.0" width="140" height="52" rx="10" ry="10" fill="#ffffff" stroke="#2f5f8a" stroke-width="1.7"/>
<text x="1530.0" y="350.0" fill="#1f2a24" font-size="12" font-weight="600" text-anchor="middle" font-family="Segoe UI, Helvetica, Arial, sans-serif">Confirm items</text>
<text x="1530.0" y="364.0" fill="#1f2a24" font-size="12" font-weight="600" text-anchor="middle" font-family="Segoe UI, Helvetica, Arial, sans-serif">received</text>
<path d="M 1415 354.0 L 1460 354.0" fill="none" stroke="#2f5f8a" stroke-width="1.6" marker-end="url(#arrow)"/>
<rect x="1660" y="330.0" width="150" height="52" rx="10" ry="10" fill="#ffffff" stroke="#2f5f8a" stroke-width="1.7"/>
<text x="1735.0" y="350.0" fill="#1f2a24" font-size="12" font-weight="600" text-anchor="middle" font-family="Segoe UI, Helvetica, Arial, sans-serif">Stock in donated</text>
<text x="1735.0" y="364.0" fill="#1f2a24" font-size="12" font-weight="600" text-anchor="middle" font-family="Segoe UI, Helvetica, Arial, sans-serif">items</text>
<line x1="1600" y1="355.0" x2="1660" y2="355.0" stroke="#2f5f8a" stroke-width="1.6" marker-end="url(#arrow)"/>
<path d="M 1180 504.0 C 1600 504.0, 1600 355.0, 1660 355.0" fill="none" stroke="#2f5f8a" stroke-width="1.3" stroke-dasharray="6 5" marker-end="url(#arrow)"/>
<rect x="1660" y="565.0" width="150" height="52" rx="10" ry="10" fill="#ffffff" stroke="#9a5b24" stroke-width="1.7"/>
<text x="1735.0" y="585.0" fill="#1f2a24" font-size="12" font-weight="600" text-anchor="middle" font-family="Segoe UI, Helvetica, Arial, sans-serif">Stock in</text>
<text x="1735.0" y="599.0" fill="#1f2a24" font-size="12" font-weight="600" text-anchor="middle" font-family="Segoe UI, Helvetica, Arial, sans-serif">purchased goods</text>
<path d="M 400 635.0 C 1000 635.0, 1400 595.0, 1660 595.0" fill="none" stroke="#9a5b24" stroke-width="1.4" marker-end="url(#arrow)"/>
<text x="1200" y="577.0" fill="#9a5b24" font-size="11" font-weight="600" text-anchor="middle" font-family="Segoe UI, Helvetica, Arial, sans-serif">purchase path</text>
<rect x="1660" y="819.0" width="175" height="52" rx="10" ry="10" fill="#ffffff" stroke="#4a5560" stroke-width="1.7"/>
<text x="1747.5" y="832.0" fill="#1f2a24" font-size="12" font-weight="600" text-anchor="middle" font-family="Segoe UI, Helvetica, Arial, sans-serif">Create FEFO batches</text>
<text x="1747.5" y="846.0" fill="#1f2a24" font-size="12" font-weight="600" text-anchor="middle" font-family="Segoe UI, Helvetica, Arial, sans-serif">+ grow dual-pool</text>
<text x="1747.5" y="860.0" fill="#1f2a24" font-size="12" font-weight="600" text-anchor="middle" font-family="Segoe UI, Helvetica, Arial, sans-serif">stock</text>
<path d="M 1735.0 382.0 L 1735.0 819.0" fill="none" stroke="#6b7280" stroke-width="1.6" stroke-dasharray="6 5" marker-end="url(#arrow-msg)"/>
<path d="M 1735.0 617.0 L 1735.0 819.0" fill="none" stroke="#6b7280" stroke-width="1.6" stroke-dasharray="6 5" marker-end="url(#arrow-msg)"/>
<path d="M 1615 845.0 L 1660.5 845.0" fill="none" stroke="#4a5560" stroke-width="1.4" marker-end="url(#arrow)"/>
<rect x="1880" y="765.0" width="140" height="48" rx="10" ry="10" fill="#ffffff" stroke="#4a5560" stroke-width="1.7"/>
<text x="1950.0" y="783.0" fill="#1f2a24" font-size="12" font-weight="600" text-anchor="middle" font-family="Segoe UI, Helvetica, Arial, sans-serif">Mark submission</text>
<text x="1950.0" y="797.0" fill="#1f2a24" font-size="12" font-weight="600" text-anchor="middle" font-family="Segoe UI, Helvetica, Arial, sans-serif">stocked</text>
<line x1="1835" y1="795.0" x2="1880" y2="795.0" stroke="#4a5560" stroke-width="1.6" marker-end="url(#arrow)"/>
<polygon points="1860,613.0 1882,635.0 1860,657.0 1838,635.0" fill="#fff8e8" stroke="#9a5b24" stroke-width="1.8"/>
<text x="1860" y="639.0" fill="#9a5b24" font-size="12" font-weight="800" text-anchor="middle" font-family="Segoe UI, Helvetica, Arial, sans-serif">X</text>
<text x="1860" y="605.0" fill="#5c6b63" font-size="11" font-weight="600" text-anchor="middle" font-family="Segoe UI, Helvetica, Arial, sans-serif">Use stock</text>
<path d="M 1810 595.0 L 1838 595.0 L 1838 635.0" fill="none" stroke="#9a5b24" stroke-width="1.6" marker-end="url(#arrow)"/>
<path d="M 1835 845.0 C 1840 845.0, 1800 675.0, 1840 653.0" fill="none" stroke="#6b7280" stroke-width="1.3" stroke-dasharray="6 5" marker-end="url(#arrow-msg)"/>
<rect x="1930" y="555.0" width="145" height="48" rx="10" ry="10" fill="#ffffff" stroke="#9a5b24" stroke-width="1.7"/>
<text x="2002.5" y="573.0" fill="#1f2a24" font-size="12" font-weight="600" text-anchor="middle" font-family="Segoe UI, Helvetica, Arial, sans-serif">Record medical</text>
<text x="2002.5" y="587.0" fill="#1f2a24" font-size="12" font-weight="600" text-anchor="middle" font-family="Segoe UI, Helvetica, Arial, sans-serif">treatment</text>
<rect x="1930" y="655.0" width="145" height="48" rx="10" ry="10" fill="#ffffff" stroke="#9a5b24" stroke-width="1.7"/>
<text x="2002.5" y="666.0" fill="#1f2a24" font-size="12" font-weight="600" text-anchor="middle" font-family="Segoe UI, Helvetica, Arial, sans-serif">Stock out waste /</text>
<text x="2002.5" y="680.0" fill="#1f2a24" font-size="12" font-weight="600" text-anchor="middle" font-family="Segoe UI, Helvetica, Arial, sans-serif">expired /</text>
<text x="2002.5" y="694.0" fill="#1f2a24" font-size="12" font-weight="600" text-anchor="middle" font-family="Segoe UI, Helvetica, Arial, sans-serif">adjustment</text>
<path d="M 1880 623.0 L 1880 603.0 L 1930 603.0" fill="none" stroke="#9a5b24" stroke-width="1.6" marker-end="url(#arrow)"/>
<path d="M 1880 647.0 L 1880 703.0 L 1930 703.0" fill="none" stroke="#9a5b24" stroke-width="1.6" marker-end="url(#arrow)"/>
<rect x="2120" y="819.0" width="165" height="52" rx="10" ry="10" fill="#ffffff" stroke="#4a5560" stroke-width="1.7"/>
<text x="2202.5" y="832.0" fill="#1f2a24" font-size="12" font-weight="600" text-anchor="middle" font-family="Segoe UI, Helvetica, Arial, sans-serif">FEFO deduct / write</text>
<text x="2202.5" y="846.0" fill="#1f2a24" font-size="12" font-weight="600" text-anchor="middle" font-family="Segoe UI, Helvetica, Arial, sans-serif">stock_out + FIFO</text>
<text x="2202.5" y="860.0" fill="#1f2a24" font-size="12" font-weight="600" text-anchor="middle" font-family="Segoe UI, Helvetica, Arial, sans-serif">impact</text>
<path d="M 2075 579.0 C 2080 579.0, 2080 837.0, 2120 840.0" fill="none" stroke="#6b7280" stroke-width="1.6" stroke-dasharray="6 5" marker-end="url(#arrow-msg)"/>
<path d="M 2075 679.0 C 2090 679.0, 2090 857.0, 2120 855.0" fill="none" stroke="#6b7280" stroke-width="1.6" stroke-dasharray="6 5" marker-end="url(#arrow-msg)"/>
<rect x="2340" y="819.0" width="165" height="52" rx="10" ry="10" fill="#ffffff" stroke="#4a5560" stroke-width="1.7"/>
<text x="2422.5" y="832.0" fill="#1f2a24" font-size="12" font-weight="600" text-anchor="middle" font-family="Segoe UI, Helvetica, Arial, sans-serif">Compute Average</text>
<text x="2422.5" y="846.0" fill="#1f2a24" font-size="12" font-weight="600" text-anchor="middle" font-family="Segoe UI, Helvetica, Arial, sans-serif">Daily Use + ROP</text>
<text x="2422.5" y="860.0" fill="#1f2a24" font-size="12" font-weight="600" text-anchor="middle" font-family="Segoe UI, Helvetica, Arial, sans-serif">suggestions</text>
<line x1="2285" y1="845.0" x2="2340" y2="845.0" stroke="#4a5560" stroke-width="1.6" marker-end="url(#arrow)"/>
<rect x="2340" y="609.0" width="165" height="52" rx="10" ry="10" fill="#ffffff" stroke="#9a5b24" stroke-width="1.7"/>
<text x="2422.5" y="629.0" fill="#1f2a24" font-size="12" font-weight="600" text-anchor="middle" font-family="Segoe UI, Helvetica, Arial, sans-serif">Review Ordering</text>
<text x="2422.5" y="643.0" fill="#1f2a24" font-size="12" font-weight="600" text-anchor="middle" font-family="Segoe UI, Helvetica, Arial, sans-serif">replenishment</text>
<path d="M 2422.5 819.0 L 2422.5 661.0" fill="none" stroke="#6b7280" stroke-width="1.6" stroke-dasharray="6 5" marker-end="url(#arrow-msg)"/>
<path d="M 2422.5 819.0 C 2340 725.0, 780 715.0, 732.5 241.0" fill="none" stroke="#6b7280" stroke-width="1.2" stroke-dasharray="6 5" marker-end="url(#arrow-msg)"/>
<text x="1500" y="128" fill="#6b7280" font-size="11" font-weight="700" text-anchor="middle" font-family="Segoe UI, Helvetica, Arial, sans-serif">replenishment alerts → Currently Needed</text>
<path d="M 2422.5 661.0 C 2340 715.0, 1720 720.0, 1735 661.0" fill="none" stroke="#9a5b24" stroke-width="1.4" stroke-dasharray="6 5" marker-end="url(#arrow)"/>
<text x="2000" y="733.0" fill="#9a5b24" font-size="11" font-weight="700" text-anchor="middle" font-family="Segoe UI, Helvetica, Arial, sans-serif">manual purchase stock-in (no auto-PO)</text>
<rect x="2340" y="399.0" width="165" height="52" rx="10" ry="10" fill="#ffffff" stroke="#2f5f8a" stroke-width="1.7"/>
<text x="2422.5" y="419.0" fill="#1f2a24" font-size="12" font-weight="600" text-anchor="middle" font-family="Segoe UI, Helvetica, Arial, sans-serif">Configure</text>
<text x="2422.5" y="433.0" fill="#1f2a24" font-size="12" font-weight="600" text-anchor="middle" font-family="Segoe UI, Helvetica, Arial, sans-serif">thresholds &amp; ROP</text>
<path d="M 2422.5 451.0 L 2422.5 845.0" fill="none" stroke="#6b7280" stroke-width="1.3" stroke-dasharray="6 5" marker-end="url(#arrow-msg)"/>
<rect x="2580" y="130.0" width="150" height="52" rx="10" ry="10" fill="#ffffff" stroke="#2f6b4f" stroke-width="1.7"/>
<text x="2655.0" y="150.0" fill="#1f2a24" font-size="12" font-weight="600" text-anchor="middle" font-family="Segoe UI, Helvetica, Arial, sans-serif">View donation</text>
<text x="2655.0" y="164.0" fill="#1f2a24" font-size="12" font-weight="600" text-anchor="middle" font-family="Segoe UI, Helvetica, Arial, sans-serif">impact</text>
<path d="M 1600 165.0 C 2100 165.0, 2400 165.0, 2580 165.0" fill="none" stroke="#2f6b4f" stroke-width="1.4" marker-end="url(#arrow)"/>
<rect x="2580" y="355.0" width="150" height="48" rx="10" ry="10" fill="#ffffff" stroke="#2f5f8a" stroke-width="1.7"/>
<text x="2655.0" y="373.0" fill="#1f2a24" font-size="12" font-weight="600" text-anchor="middle" font-family="Segoe UI, Helvetica, Arial, sans-serif">Review usage / ROP</text>
<text x="2655.0" y="387.0" fill="#1f2a24" font-size="12" font-weight="600" text-anchor="middle" font-family="Segoe UI, Helvetica, Arial, sans-serif">Status / audit</text>
<rect x="2580" y="565.0" width="150" height="48" rx="10" ry="10" fill="#ffffff" stroke="#9a5b24" stroke-width="1.7"/>
<text x="2655.0" y="583.0" fill="#1f2a24" font-size="12" font-weight="600" text-anchor="middle" font-family="Segoe UI, Helvetica, Arial, sans-serif">View usage + My</text>
<text x="2655.0" y="597.0" fill="#1f2a24" font-size="12" font-weight="600" text-anchor="middle" font-family="Segoe UI, Helvetica, Arial, sans-serif">Activity</text>
<rect x="2580" y="819.0" width="150" height="52" rx="10" ry="10" fill="#ffffff" stroke="#4a5560" stroke-width="1.7"/>
<text x="2655.0" y="839.0" fill="#1f2a24" font-size="12" font-weight="600" text-anchor="middle" font-family="Segoe UI, Helvetica, Arial, sans-serif">Raise alerts +</text>
<text x="2655.0" y="853.0" fill="#1f2a24" font-size="12" font-weight="600" text-anchor="middle" font-family="Segoe UI, Helvetica, Arial, sans-serif">serve reports</text>
<line x1="2505" y1="845.0" x2="2580" y2="845.0" stroke="#4a5560" stroke-width="1.6" marker-end="url(#arrow)"/>
<path d="M 2285 825.0 C 2520 755.0, 2520 215.0, 2580 195.0" fill="none" stroke="#6b7280" stroke-width="1.3" stroke-dasharray="6 5" marker-end="url(#arrow-msg)"/>
<path d="M 2655.0 819.0 L 2655.0 447.0" fill="none" stroke="#6b7280" stroke-width="1.2" stroke-dasharray="6 5" marker-end="url(#arrow-msg)"/>
<path d="M 2685.0 819.0 L 2685.0 613.0" fill="none" stroke="#6b7280" stroke-width="1.2" stroke-dasharray="6 5" marker-end="url(#arrow-msg)"/>
<circle cx="2820" cy="845.0" r="16" fill="#f0d9d9" stroke="#4a5560" stroke-width="2.2"/>
<circle cx="2820" cy="845.0" r="10" fill="#f0d9d9" stroke="#4a5560" stroke-width="3.2"/>
<text x="2820" y="879.0" fill="#5c6b63" font-size="11" font-weight="600" text-anchor="middle" font-family="Segoe UI, Helvetica, Arial, sans-serif">Operational end</text>
<line x1="2730" y1="845.0" x2="2804" y2="845.0" stroke="#4a5560" stroke-width="1.6" marker-end="url(#arrow)"/>
<text x="210" y="992" fill="#1f2a24" font-size="13" font-weight="800" text-anchor="start" font-family="Segoe UI, Helvetica, Arial, sans-serif">Legend</text>
<rect x="290" y="972" width="70" height="28" rx="8" ry="8" fill="#ffffff" stroke="#1f2a24" stroke-width="1.2"/>
<text x="325" y="992" fill="#1f2a24" font-size="12" font-weight="600" text-anchor="middle" font-family="Segoe UI, Helvetica, Arial, sans-serif">Task</text>
<polygon points="410,972 424,986 410,1000 396,986" fill="#fff8e8" stroke="#1f2a24" stroke-width="1.8"/>
<text x="410" y="1020" fill="#5c6b63" font-size="11" font-weight="600" text-anchor="middle" font-family="Segoe UI, Helvetica, Arial, sans-serif">XOR</text>
<circle cx="480" cy="986" r="10" fill="#d9f0e3" stroke="#2f6b4f" stroke-width="2"/>
<text x="480" y="1020" fill="#5c6b63" font-size="11" font-weight="600" text-anchor="middle" font-family="Segoe UI, Helvetica, Arial, sans-serif">Start</text>
<circle cx="540" cy="986" r="10" fill="#f0d9d9" stroke="#4a5560" stroke-width="2"/>
<circle cx="540" cy="986" r="6" fill="#f0d9d9" stroke="#4a5560" stroke-width="2.5"/>
<text x="540" y="1020" fill="#5c6b63" font-size="11" font-weight="600" text-anchor="middle" font-family="Segoe UI, Helvetica, Arial, sans-serif">End</text>
<line x1="590" y1="986" x2="670" y2="986" stroke="#1f2a24" stroke-width="1.6" marker-end="url(#arrow)"/>
<text x="710" y="992" fill="#1f2a24" font-size="12" font-weight="600" text-anchor="middle" font-family="Segoe UI, Helvetica, Arial, sans-serif">Sequence flow</text>
<line x1="830" y1="986" x2="910" y2="986" stroke="#6b7280" stroke-width="1.6" stroke-dasharray="6 5" marker-end="url(#arrow-msg)"/>
<text x="970" y="992" fill="#1f2a24" font-size="12" font-weight="600" text-anchor="middle" font-family="Segoe UI, Helvetica, Arial, sans-serif">Message / data flow</text>
<text x="1190" y="992" fill="#5c6b63" font-size="12" font-weight="600" text-anchor="start" font-family="Segoe UI, Helvetica, Arial, sans-serif">Supplier = external data only (no login lane) · ROP recommends only (no auto-PO) · Realtime refresh is not a process step</text>
<text x="1190" y="1014" fill="#5c6b63" font-size="12" font-weight="600" text-anchor="start" font-family="Segoe UI, Helvetica, Arial, sans-serif">Submission: pending → approved → received → stocked · rejected from pending only · Stock-out: waste | expired | adjustment</text>
<text x="1190" y="1036" fill="#5c6b63" font-size="12" font-weight="600" text-anchor="start" font-family="Segoe UI, Helvetica, Arial, sans-serif">New vs prior diagram: Forgot Password, Currently Needed, Staff Accounts, walk-in Add Donation, Average Daily Use wording</text>
</svg>
